<?xml version="1.0" encoding="UTF-8" standalone="no"?>
<svg
   viewBox="0 0 32 32"
   version="1.1"
   id="svg14707"
   sodipodi:docname="campos.svg"
   inkscape:version="1.3.2 (091e20e, 2023-11-25, custom)"
   xmlns:inkscape="http://www.inkscape.org/namespaces/inkscape"
   xmlns:sodipodi="http://sodipodi.sourceforge.net/DTD/sodipodi-0.dtd"
   xmlns="http://www.w3.org/2000/svg"
   xmlns:svg="http://www.w3.org/2000/svg">
  <defs
     id="defs14711" />
  <sodipodi:namedview
     id="namedview14709"
     pagecolor="#ffffff"
     bordercolor="#666666"
     borderopacity="1.0"
     inkscape:showpageshadow="2"
     inkscape:pageopacity="0.0"
     inkscape:pagecheckerboard="0"
     inkscape:deskcolor="#d1d1d1"
     showgrid="false"
     inkscape:zoom="18.495262"
     inkscape:cx="23.357333"
     inkscape:cy="16.247404"
     inkscape:window-width="1920"
     inkscape:window-height="1017"
     inkscape:window-x="-8"
     inkscape:window-y="-8"
     inkscape:window-maximized="1"
     inkscape:current-layer="g4" />
  <path
     id="rect2"
     style="fill:#ffffff;fill-opacity:1;stroke:none;stroke-width:1.5596;stroke-opacity:1"
     d="m 2.5770623,20.286035 27.1469457,-0.0043 -0.142282,9.843604 -27.071476,-0.0034 z"
     sodipodi:nodetypes="ccccc" />
  <path
     d="m 2.2241505,0.35015184 c -0.8513479,0 -1.53672886,0.53505504 -1.53672886,1.19967496 V 30.342026 c 0,0.66462 0.68538096,1.199676 1.53672886,1.199676 H 29.885269 c 0.851347,0 1.536728,-0.535056 1.536728,-1.199676 V 18.214063 9.0470804 8.7976392 c 0,-0.5406696 0.724767,-1.1825612 -0.356333,-1.9515458 L 24.246252,1.010546 C 23.394951,0.3120914 20.834487,0.35015184 20.144886,0.35015184 h -1.016719 z m 0,1.19967496 H 22.851568 l 0.190942,5.2602237 c 0.02412,0.6643532 1.35385,1.6337273 2.205033,1.6468656 l 4.828668,0.074532 -0.190942,21.8105779 H 2.2241505 Z"
     fill="#3a3a38"
     id="path14697"
     style="fill:#3a3a38;fill-opacity:1;stroke:#f0f0f0;stroke-width:0.252;stroke-dasharray:none;stroke-opacity:1"
     sodipodi:nodetypes="ssssssccsccscsccsscccc" />
  <path
     d="M 24.290321,7.0542915 H 27.90931 L 24.290321,2.5106474 Z"
     fill="#fafafa"
     fill-rule="evenodd"
     id="path14699"
     style="stroke-width:0.675842" />
  <path
     d="m 7.8395285,20.924253 c 1.379356,0.0023 2.5671235,0.994939 2.8429935,2.37581 h 8.20199 v 1.187905 h -8.197448 c -0.276213,1.382576 -1.4664725,2.375656 -2.8475355,2.375809 -1.379355,-0.0023 -2.5671227,-0.994939 -2.8429926,-2.375809 H 2.6076947 v -1.187905 h 2.3842991 c 0.2762131,-1.382577 1.4664731,-2.375656 2.8475347,-2.37581 z"
     id="path14703"
     style="fill:#d46910;fill-opacity:1;stroke-width:1.1752" />
  <g
     id="g5"
     transform="matrix(1.1975823,0,0,1.1554753,-32.34975,-2.9689509)">
    <g
       id="g4"
       transform="translate(24)">
      <path
         style="font-weight:bold;font-size:9.81891px;line-height:1.25;font-family:'DejaVu Sans';-inkscape-font-specification:'DejaVu Sans Bold';letter-spacing:0.846005px;fill:#005350;stroke:#ffffff;stroke-width:0.375866;stroke-opacity:1"
         d="m 13.578676,14.844737 h -3.036307 l -0.479151,2.351656 H 8.111307 L 10.900473,4.2882272 h 2.315057 l 2.789162,12.9081658 h -1.951909 z m -2.552111,-2.394882 h 2.062872 L 12.060522,7.3142545 Z m 9.318015,0.389062 q -0.564893,0 -0.852385,0.32854 -0.282445,0.328541 -0.282445,0.968325 0,0.587917 0.226966,0.925102 0.23201,0.32854 0.640547,0.32854 0.509414,0 0.85743,-0.622495 0.348015,-0.631147 0.348015,-1.573536 v -0.354476 z m 2.758904,-1.167184 v 5.52466 h -1.820776 v -1.435199 q -0.363146,0.881869 -0.81708,1.288223 -0.453932,0.397707 -1.104568,0.397707 -0.877604,0 -1.427366,-0.873226 -0.544721,-0.881872 -0.544721,-2.282492 0,-1.703216 0.6809,-2.498632 0.685943,-0.795412 2.148615,-0.795412 h 1.06422 v -0.242083 q 0,-0.734892 -0.337928,-1.0720776 -0.337927,-0.3458318 -1.054132,-0.3458318 -0.580026,0 -1.079351,0.1988532 -0.499327,0.1988534 -0.928041,0.5965592 V 7.7724812 q 0.580025,-0.242082 1.165093,-0.3631232 0.585072,-0.1296856 1.170139,-0.1296856 1.528241,0 2.204095,1.0374952 0.680901,1.0288491 0.680901,3.3545654 z"
         id="path3" />
      <path
         style="font-weight:bold;font-size:11.4228px;line-height:1.25;font-family:'DejaVu Sans';-inkscape-font-specification:'DejaVu Sans Bold';letter-spacing:0.846005px;fill:#0000ff;stroke:#ffffff;stroke-width:0.298456;stroke-opacity:1"
         d="m 5.7962511,4.0791798 4.3792059,-0.045997 -0.04453,1.9487968 -2.2259367,-0.00789 -0.082676,11.2461384 2.3466227,-0.04117 0.01305,1.879126 c 0,0 -2.8351253,0.0052 -4.3857264,-0.03811 z"
         id="path2"
         sodipodi:nodetypes="ccccccccc" />
      <path
         style="font-weight:bold;font-size:11.4228px;line-height:1.25;font-family:'DejaVu Sans';-inkscape-font-specification:'DejaVu Sans Bold';letter-spacing:0.846005px;fill:#0000fb;stroke:#ffffff;stroke-width:0.299184;stroke-opacity:1"
         d="m 25.542243,19.017545 -3.770108,0.04626 v -1.898389 h 1.770034 l 0.07594,-11.2804388 h -1.808001 l 0.03796,-1.9446618 3.694172,0.046274 z"
         id="path4"
         sodipodi:nodetypes="ccccccccc" />
    </g>
  </g>
  <g
     id="g1"
     transform="matrix(0.98081134,0,0,0.97667721,-24.694825,3.4370584)">
    <path
       style="fill:#ac0638;fill-opacity:1;stroke:none;stroke-width:1.33251;stroke-opacity:1"
       d="m 49.141602,21.389289 c 1.058783,0 1.917096,0.933009 1.917096,2.083934 0,1.150924 -0.858313,2.083933 -1.917096,2.083933 -1.058781,0 -1.917095,-0.933009 -1.917095,-2.083933 0,-1.150925 0.858314,-2.083934 1.917095,-2.083934 z"
       id="path1" />
    <path
       style="fill:none;stroke:#8b0000;stroke-width:0.733;stroke-dasharray:none;stroke-opacity:1"
       d="m 49.141602,20 c -1.516307,0.0028 -2.822004,1.16361 -3.125263,2.778578 H 37 v 1.389289 h 9.011346 c 0.303636,1.616962 1.612073,2.778398 3.130256,2.778578 1.516308,-0.0028 2.822005,-1.16361 3.125265,-2.778578 h 2.626022 V 22.778578 H 52.27186 C 51.968223,21.161615 50.659786,20.000179 49.141602,20 Z"
       id="path14701-8" />
  </g>
</svg>
