<?xml version="1.0" encoding="UTF-8" standalone="no"?>
<svg
   viewBox="0 0 32 32"
   version="1.1"
   id="svg14151"
   sodipodi:docname="Estilos.svg"
   width="32"
   height="32"
   inkscape:version="1.3.2 (091e20e, 2023-11-25, custom)"
   xmlns:inkscape="http://www.inkscape.org/namespaces/inkscape"
   xmlns:sodipodi="http://sodipodi.sourceforge.net/DTD/sodipodi-0.dtd"
   xmlns="http://www.w3.org/2000/svg"
   xmlns:svg="http://www.w3.org/2000/svg"><defs
   id="defs14155" />
<sodipodi:namedview
   id="namedview14153"
   pagecolor="#ffffff"
   bordercolor="#666666"
   borderopacity="1.0"
   inkscape:showpageshadow="2"
   inkscape:pageopacity="0.0"
   inkscape:pagecheckerboard="0"
   inkscape:deskcolor="#d1d1d1"
   showgrid="false"
   inkscape:zoom="9.247631"
   inkscape:cx="-0.59474691"
   inkscape:cy="23.735809"
   inkscape:window-width="1920"
   inkscape:window-height="1017"
   inkscape:window-x="-8"
   inkscape:window-y="-8"
   inkscape:window-maximized="1"
   inkscape:current-layer="svg14151" />



/&amp;amp;amp;gt;<path
   d="m 5.008872,1.7311976 c -2.6468802,0 -4.7926003,2.6915684 -4.7926003,6.0117864 0,3.320217 2.1457201,6.011785 4.7926003,6.011785 h 1.19815 v 3.842496 C 6.556408,17.350113 6.955601,17.14048 7.405172,16.974949 V 3.2341441 h 2.3963 V 13.822284 c 0.400417,-0.693106 0.810039,-1.394738 1.19815,-1.999036 V 3.2341441 h 1.198149 3.594451 V 1.7311976 h -3.594451 -2.396299 -2.3963 z"
   fill="#3a3a38"
   id="path14139"
   style="stroke-width:1.34191" />
<path
   d="M 13.858134,4.6271229 5.1227789,27.262691 h 2.2776023 c 0.242181,0 0.4298971,-0.06241 0.5887223,-0.187893 0.00152,-7.59e-4 0.00305,-0.0015 0.00448,-0.0023 0.1816135,-0.13501 0.2932248,-0.281476 0.3523237,-0.444311 l 2.2298638,-6.156203 h 4.81206 v 0.01547 h 1.166078 c -2e-5,-0.0053 -0.0023,-0.01016 -0.0023,-0.01547 0,-0.798722 0.178098,-1.557307 0.488708,-2.248083 h -1.652512 v -0.01547 h -3.991456 l 3.118633,-8.6032835 0.0023,-0.0023 C 14.6237,9.3268584 14.736816,9.003221 14.855967,8.6324263 14.97489,8.262266 15.093504,7.8554274 15.212837,7.4144378 l 0.17497,-0.5393115 v 0.015472 l 0.175026,0.5393636 c 0.119332,0.4409895 0.237944,0.8478802 0.35687,1.2179884 0.119151,0.3707948 0.232325,0.6944321 0.338685,0.9704106 l 0.0023,0.0023 2.375343,6.5541471 c 0.656632,-0.54099 1.429064,-0.943622 2.284421,-1.160516 L 16.917668,4.6425966 h -1.529767 v -0.015472 z"
   fill="#3a3a38"
   id="path10897"
   style="stroke-width:1.14768;fill:#3839ca;fill-opacity:1" />
<path
   d="m 30.679942,2.7014535 c -0.322946,0.011654 -0.672968,0.2143808 -0.946726,0.4245777 -7.51007,5.7501044 -8.624366,8.4714368 -13.162985,16.2554498 -0.38272,0.56401 -0.514028,1.322807 -0.351033,2.028536 0.226384,0.974761 0.106185,1.305164 1.324928,1.99589 1.218746,0.690727 1.870231,0.942061 4.180493,0.803595 0.408545,-0.02466 0.798341,-0.217508 1.10629,-0.547314 6.48945,-6.928523 5.289403,-5.408845 8.862142,-11.901235 0.201351,-0.36733 0.308753,-0.799849 0.308485,-1.242315 V 4.9586289 C 32.001269,3.704809 31.703012,2.6655845 30.679942,2.7014535 Z"
   fill="#3a3a38"
   id="path14141"
   style="stroke-width:2.00937" />
<path
   d="m 30.186088,5.5324725 c -6.589561,5.2302305 -7.672877,7.4867535 -12.13726,15.1434475 -0.02594,0.04317 -0.05314,0.0852 -0.08155,0.125968 h -0.0035 c 0.150784,0.64924 0.205299,0.76177 0.07801,0.516907 -0.127292,-0.244863 -0.223524,-0.212259 0.265935,0.06516 1.1473,0.650234 1.142974,0.73483 3.329503,0.603781 0.0012,-0.0015 0.0024,-0.0029 0.0036,-0.0044 3.177122,-3.392084 4.320841,-5.096101 5.17677,-6.771818 0.855537,-1.674945 1.512366,-1.314342 3.368507,-4.688024 v -0.0043 z"
   fill="#fafafa"
   id="path14143"
   style="stroke-width:2.00937" />
<path
   d="m 16.080911,20.515203 c -0.474183,0.02166 -0.933747,0.06427 -1.326128,0.10425 -3.733816,1.09888 -3.153674,2.973524 -5.956937,7.38873 -0.9375811,1.47932 -0.1104922,3.619804 1.418318,3.622693 4.922733,-0.385534 6.789994,1.176251 10.126794,-2.745253 0.130059,-0.158616 0.240014,-0.340155 0.326213,-0.538627 0.296109,-0.782164 0.475452,-1.518131 0.471591,-2.250067 -0.0067,-1.26381 -0.421638,-2.443146 -0.730434,-3.305599 -0.801719,-1.291603 -1.597574,-1.935981 -2.911098,-2.271784 -0.454156,-0.02736 -0.944136,-0.026 -1.418319,-0.0044 z m 0.02482,2.176221 c 0.382759,0.0036 0.782907,0.04784 1.209116,0.117294 1.17238,0.50282 1.886503,1.474105 1.967917,3.353379 8.69e-4,0.164732 -0.02931,0.394576 -0.08864,0.660251 L 13.57758,23.655749 c 0.821357,-0.725341 1.626948,-0.972556 2.528152,-0.964314 z m -3.737269,2.72788 5.485346,3.092755 c -0.731191,0.600373 -1.325332,0.794292 -2.123931,0.873095 -1.641541,-0.02046 -4.391473,-0.01957 -5.510167,-0.0218 1.096046,-1.726296 1.684004,-2.975105 2.148752,-3.94413 z"
   fill="#0063b1"
   id="path14145"
   style="stroke-width:2.00937" />
<path
   d="m 12.368463,25.419304 c -0.464748,0.969025 -1.052706,2.217835 -2.148753,3.944131 1.118695,0.0022 3.868626,0.0013 5.510167,0.0218 0.798599,-0.0788 1.392741,-0.272723 2.123932,-0.873095 z"
   fill="#83beec"
   id="path14147"
   style="stroke-width:2.00937" />
<path
   d="m 16.105732,22.691424 c -0.890044,-0.0081 -1.68899,0.272527 -2.499787,0.977345 l 5.588175,3.153568 c 0.05934,-0.265733 0.08951,-0.495521 0.08864,-0.660251 -0.08141,-1.879274 -0.795538,-2.850559 -1.967917,-3.353379 -0.426209,-0.06945 -0.826358,-0.113783 -1.209116,-0.117283 z"
   fill="#fafafa"
   id="path14149"
   style="stroke-width:2.00937" />
</svg>
