<?xml version="1.0" encoding="UTF-8" standalone="no"?>
<svg
   viewBox="0 0 32 32"
   version="1.1"
   id="svg18"
   sodipodi:docname="Imagenes.svg"
   width="32"
   height="32"
   inkscape:version="1.2.1 (9c6d41e410, 2022-07-14)"
   xmlns:inkscape="http://www.inkscape.org/namespaces/inkscape"
   xmlns:sodipodi="http://sodipodi.sourceforge.net/DTD/sodipodi-0.dtd"
   xmlns="http://www.w3.org/2000/svg"
   xmlns:svg="http://www.w3.org/2000/svg">
  <defs
     id="defs22" />
  <sodipodi:namedview
     id="namedview20"
     pagecolor="#ffffff"
     bordercolor="#666666"
     borderopacity="1.0"
     inkscape:showpageshadow="2"
     inkscape:pageopacity="0"
     inkscape:pagecheckerboard="0"
     inkscape:deskcolor="#d1d1d1"
     showgrid="false"
     inkscape:zoom="13.078125"
     inkscape:cx="20.606929"
     inkscape:cy="27.679808"
     inkscape:window-width="1920"
     inkscape:window-height="1017"
     inkscape:window-x="-8"
     inkscape:window-y="-8"
     inkscape:window-maximized="1"
     inkscape:current-layer="svg18"
     showborder="true" />
  <path
     d="m 27.296599,14.201354 c 0,2.109314 -1.794887,3.819252 -4.00899,3.819252 -2.214105,0 -4.008991,-1.709938 -4.008991,-3.819252 0,-2.109313 1.794886,-3.819249 4.008991,-3.819249 2.214103,0 4.00899,1.709936 4.00899,3.819249 z"
     fill="#fb983b"
     id="path10"
     style="stroke:#000000;stroke-width:0.652162;stroke-dasharray:none;stroke-opacity:1" />
  <path
     d="m 25.48148,16.319955 -6.681651,5.848226 -2.672662,-2.028977 c 0,0 -5.846527,5.186573 -8.900167,7.6385 h 23.599802 v -6.365416 z"
     fill="#83beec"
     id="path12"
     style="fill:#829646;fill-opacity:1;fill-rule:evenodd;stroke-width:1.30432" />
  <path
     d="m 25.281285,14.884668 -6.681651,5.848226 -2.672662,-2.028977 c 0,0 -10.0390542,8.911583 -10.6906415,8.911583 H 7.0268046 C 10.080445,25.163573 15.926972,19.977 15.926972,19.977 l 2.672662,2.028977 6.681651,-5.848226 5.345322,5.092333 V 19.977 Z"
     fill="#0063b1"
     id="path14"
     style="fill-rule:evenodd;stroke:#000000;stroke-width:0.52173;stroke-dasharray:none;stroke-opacity:1;fill:#fffdfe;fill-opacity:1" />
  <path
     style="fill:#82bedc;fill-opacity:1;stroke:#000000;stroke-width:0.564;stroke-linecap:butt;stroke-linejoin:miter;stroke-dasharray:none;stroke-opacity:1"
     d="m 28.851273,29.147861 c 0.158278,-0.06809 0.374733,-0.118134 0.474837,-0.204257 0.07079,-0.0609 0,-0.136172 0,-0.204258 0,-0.06809 0,-0.136171 0,-0.204258 0,-0.05106 0,-0.102128 0,-0.153192 0,-0.01702 0.01779,-0.03585 0,-0.05106 -0.271641,-0.233702 0.04921,0.216687 -0.237416,-0.153193 -0.01252,-0.01614 0.01779,-0.03585 0,-0.05106 -0.247022,-0.212519 0.008,0.05458 -0.237421,-0.05106 -0.06258,-0.02691 -0.04509,-0.08102 -0.118714,-0.102128 -0.06584,-0.01888 -0.160649,0.0082 -0.237419,0 -0.08585,-0.0093 -0.15828,-0.03403 -0.237421,-0.05106 -0.07913,-0.01702 -0.163789,-0.02996 -0.23742,-0.05106 -0.136718,-0.0392 -0.224544,-0.110741 -0.356128,-0.153193 -0.118714,-0.03403 -0.237419,-0.06809 -0.356129,-0.102129 -0.03956,0 -0.08332,0.0077 -0.118715,0 -0.05006,-0.01077 -0.07215,-0.03771 -0.118714,-0.05106 -0.07361,-0.02111 -0.161551,-0.03149 -0.237421,-0.05106 -0.122337,-0.03158 -0.228518,-0.07468 -0.35613,-0.102129 -0.111927,-0.02407 -0.239947,-0.03107 -0.356127,-0.05106 -0.08216,-0.01414 -0.151581,-0.04183 -0.23742,-0.05106 -0.07678,-0.0082 -0.158279,0 -0.23742,0 -0.03956,0 -0.08333,0.0077 -0.118714,0 -0.05006,-0.01077 -0.06563,-0.04345 -0.118716,-0.05106 -0.07509,-0.01077 -0.160648,0.0082 -0.237419,0 -0.08585,-0.0093 -0.158279,-0.03405 -0.237418,-0.05106 -0.316562,-0.01702 -0.63685,-0.02415 -0.94968,-0.05106 -0.08677,-0.0075 -0.158278,-0.03404 -0.237417,-0.05106 -0.23742,-0.01702 -0.47276,-0.04076 -0.712261,-0.05106 -0.157487,-0.0068 -0.316558,0 -0.47484,0 -0.356127,0 -0.712257,0 -1.068387,0 -0.158279,0 -0.316559,0 -0.474837,0 -0.03956,0 -0.07915,0 -0.118715,0 -0.03956,0 -0.08332,-0.0077 -0.118715,0 -0.03592,0.0077 -0.456882,0.188809 -0.474839,0.204259 -0.08188,0.07044 0.143766,0.04568 -0.118715,0.102128 -0.0354,0.0077 -0.08333,-0.0077 -0.118713,0 -0.05006,0.01077 -0.06866,0.0403 -0.118716,0.05106 -0.03539,0.0077 -0.07913,0 -0.118714,0 -0.03956,0.01702 -0.06866,0.0403 -0.118714,0.05106 -0.03539,0.0077 -0.07913,0 -0.118715,0 -0.03956,0 -0.07915,0 -0.118714,0 -0.119549,0 -0.646609,-0.0095 -0.712257,0 -0.05309,0.0077 -0.06562,0.04346 -0.118711,0.05106 -0.07508,0.01077 -0.15828,0 -0.237419,0 -0.118711,0 -0.23742,0 -0.35613,0 -0.276989,0 -0.553979,0 -0.830968,0 -0.3957,0 -0.791398,0 -1.187096,0 -0.100728,0 -0.646818,-0.0094 -0.71226,0 -0.05309,0.0077 -0.06441,0.04523 -0.118713,0.05106 -0.115154,0.01239 -0.23742,0 -0.35613,0 -0.03956,0 -0.08118,-0.0055 -0.118715,0 -0.08394,0.01203 -0.151581,0.04183 -0.23742,0.05106 -0.153558,0.01652 -0.321284,-0.01651 -0.474838,0 -0.08585,0.0093 -0.15347,0.03902 -0.237419,0.05106 -0.09555,0.0137 -0.398982,-0.01631 -0.47484,0 -0.05006,0.01077 -0.06866,0.0403 -0.118714,0.05106 -0.03539,0.0077 -0.07915,0 -0.118715,0 -0.118714,0.01702 -0.256025,0.01876 -0.35613,0.05106 -0.07079,0.02284 -0.05614,0.07522 -0.118715,0.102129 -0.02797,0.01203 -0.08332,-0.0077 -0.118714,0 -0.05006,0.01077 -0.06865,0.0403 -0.118714,0.05106 -0.07079,0.01523 -0.16065,-0.0082 -0.23742,0 -0.118715,0.01702 -0.237418,0.03405 -0.356128,0.05106 0,0.01702 0.02797,0.03902 0,0.05106 -0.02797,0.01203 -0.09072,-0.01203 -0.118714,0 -1.15e-4,5e-5 1.77e-4,0.152963 0,0.153193 -0.02679,0.03458 -0.31079,0.114188 -0.35613,0.153195 -0.03539,0.03044 0.03539,0.07168 0,0.102128 -0.02503,0.02154 -0.09368,0.02953 -0.118715,0.05106 -0.03539,0.03044 0.05596,0.07805 0,0.102128 -0.02797,0.01203 -0.08578,-0.0095 -0.118714,0 -0.09311,0.02671 -0.158279,0.06809 -0.23742,0.102129 -0.03956,0.01702 -0.06865,0.04029 -0.118715,0.05106 -0.03539,0.0077 -0.08031,-0.0042 -0.118714,0 -0.121393,0.01306 -0.239949,0.03107 -0.35613,0.05106 -0.08216,0.01414 -0.151582,0.04183 -0.23742,0.05106 -0.076778,0.0082 -0.1666434,-0.01523 -0.2374197,0 -0.035393,0.0077 0.027972,0.03902 0,0.05106 -0.027972,0.01203 -0.081169,-0.0055 -0.1187145,0 -0.083936,0.01203 -0.1534701,0.03902 -0.2374177,0.05106 -0.1547876,0.02219 -0.323359,0.025 -0.47484,0.05106 -0.051947,0.009 -0.067272,0.04158 -0.1187143,0.05106 -0.4588892,0.0846 -0.9609146,0.124489 -1.4245177,0.204258 -0.082159,0.01413 -0.1534701,0.03902 -0.2374199,0.05106 -0.037544,0.0055 -0.090722,-0.01203 -0.1187144,0 -0.027972,0.01203 0.027972,0.03902 0,0.05106 -0.027972,0.01203 -0.090722,-0.01203 -0.1187144,0 -0.062574,0.02691 -0.05614,0.07522 -0.1187143,0.102128 -0.027972,0.01203 -0.090722,-0.01203 -0.1187145,0 -0.062574,0.02691 -0.05614,0.07522 -0.1187143,0.102129 -0.062574,0.02691 -0.1637895,0.02996 -0.2374199,0.05106 -0.046567,0.01336 -0.079128,0.03404 -0.1187146,0.05106 -0.039564,0.01702 -0.093684,0.02953 -0.1187143,0.05106 -0.017784,0.01523 0.027972,0.03902 0,0.05106 -0.062574,0.02691 -0.1748551,0.02415 -0.2374178,0.05106 -0.027972,0.01203 0,0.03404 0,0.05106 0,0.03403 0,0.06809 0,0.102129 0,0.01702 0,0.03404 0,0.05106 0,0.01703 -0.017784,0.03585 0,0.05106 0.025029,0.02154 0.079128,0.03405 0.1187144,0.05106 0.1582785,0.06809 0.3165614,0.136172 0.47484,0.204258 0.1978426,0.0851 0.3956984,0.170214 0.5935498,0.255322 0.039564,0.01702 0.068655,0.0403 0.1187145,0.05106 0.035393,0.0077 0.090722,-0.01203 0.1187143,0 0.062574,0.02691 0.05614,0.07522 0.1187144,0.102129 0.027972,0.01203 0.083322,-0.0077 0.1187144,0 0.543289,0.116851 -0.5037336,-0.02117 0.35613,0.102129 0.037544,0.0055 0.085781,-0.0095 0.1187144,0 0.093114,0.02671 0.1582784,0.06809 0.2374199,0.10213 0.1187144,0.03404 0.2337885,0.07055 0.3561278,0.102128 0.075878,0.01958 0.1534703,0.03902 0.2374199,0.05106 0.037544,0.0055 0.090722,-0.01203 0.1187145,0 0.027972,0.01203 -0.027972,0.03902 0,0.05106 0.062574,0.02691 0.1534702,0.03902 0.2374199,0.05106 0.8407531,0.120552 0.7862591,0.102128 1.5432271,0.102128 0.125894,0 0.503941,0.01102 0.593548,0 0.197843,-0.03404 0.395699,-0.06809 0.59355,-0.102128 0.03956,-0.01703 0.06727,-0.04159 0.118715,-0.05106 0.230027,-0.0424 0.47484,-0.06809 0.71226,-0.102129 0.118715,-0.01702 0.233427,-0.0405 0.356129,-0.05106 0.09065,-0.0078 0.384508,0.01295 0.474838,0 0.08393,-0.01203 0.151583,-0.04183 0.23742,-0.05106 0.07678,-0.0082 0.159816,0.0067 0.23742,0 0.122711,-0.01056 0.234735,-0.03801 0.356128,-0.05106 0.09838,-0.01058 0.468547,0 0.593549,0 0.101902,0 0.642805,-0.01 0.712259,0 0.167873,0.02407 0.309143,0.07541 0.474839,0.102129 0.152763,0.02464 0.317437,0.03259 0.474839,0.05106 0.277923,0.03261 0.553045,0.06952 0.830968,0.102129 0.157403,0.01846 0.317966,0.03178 0.474839,0.05106 0.36095,0.04436 0.715596,0.09802 1.068388,0.153193 0.200258,0.03133 0.387967,0.07801 0.593549,0.102129 0.277496,0.157888 0.640179,0.01778 0.949678,0.05106 0.08585,0.0093 0.15066,0.04359 0.237419,0.05106 0.116405,0.01001 0.237421,0 0.356131,0 0.118714,0 0.241987,0.01402 0.356128,0 0.170157,-0.02091 0.312185,-0.07214 0.474839,-0.102129 0.230028,-0.0424 0.488417,-0.05398 0.712258,-0.102129 0.05006,-0.01077 0.07071,-0.03869 0.118715,-0.05106 0.151736,-0.03916 0.331724,-0.05736 0.474839,-0.102128 0.295041,-0.09229 0.534106,-0.215173 0.830969,-0.306387 0.276989,-0.06809 0.553978,-0.136172 0.830969,-0.204258 0.07913,0 0.164689,0.01342 0.237418,0 0.21207,-0.0391 0.393218,-0.10395 0.593551,-0.153193 0.07682,-0.01888 0.166642,-0.02822 0.237418,-0.05106 0.08953,-0.02889 0.141439,-0.07736 0.23742,-0.102129 0.107299,-0.0277 0.24421,-0.02699 0.356129,-0.05106 0.05006,-0.01077 0.07915,-0.03405 0.118714,-0.05106 0.07913,-0.03405 0.147871,-0.07324 0.237419,-0.10213 0.07079,-0.02284 0.16379,-0.02996 0.237421,-0.05106 0.04656,-0.01336 0.06866,-0.04029 0.118714,-0.05106 0.07078,-0.01523 0.166644,0.01523 0.23742,0 0.05006,-0.01077 0.07915,-0.03404 0.118715,-0.05106 0.03956,-0.01702 0.08767,-0.03104 0.118715,-0.05106 0.04907,-0.03167 0.05614,-0.07522 0.118713,-0.102129 0.06258,-0.02691 0.174856,-0.02415 0.237418,-0.05106 0.0145,-0.0062 -0.01075,-0.134658 0,-0.153194 0.299851,-0.515934 -0.04286,0.03688 0.23742,-0.204257 0.03539,-0.03044 -0.03539,-0.07168 0,-0.102128 0.02503,-0.02154 0.09369,-0.02954 0.118714,-0.05106 0.03539,-0.03044 -0.06584,-0.08325 0,-0.102128 0.104122,-0.02986 0.237421,-0.03404 0.35613,-0.05106 z"
     id="path2543" />
  <g
     id="g490"
     transform="matrix(1.380138,0,0,1.5299348,-22.924031,-33.542082)">
    <path
       d="m 17.208294,25.916159 c 4.167224,-4.666523 8.387321,-4.888336 12.471047,-0.02218 -4.216545,4.728696 -8.360413,4.826277 -12.471047,0.02218 z"
       fill="none"
       stroke="#3a3a38"
       id="path1164"
       style="fill:#ffffff;fill-opacity:1;stroke:#000000;stroke-width:0.861538;stroke-dasharray:none;stroke-opacity:1"
       sodipodi:nodetypes="ccc" />
    <path
       d="m 23.535966,22.579724 c -1.869272,0 -3.384616,1.515344 -3.384616,3.384615 0,1.869272 1.515344,3.384616 3.384616,3.384616 1.869271,0 3.384615,-1.515344 3.384615,-3.384616 0,-1.869271 -1.515344,-3.384615 -3.384615,-3.384615 z m 0,0.615385 a 2.7692308,2.7692308 0 0 1 2.76923,2.76923 2.7692308,2.7692308 0 0 1 -2.76923,2.769231 2.7692308,2.7692308 0 0 1 -2.769231,-2.769231 2.7692308,2.7692308 0 0 1 2.769231,-2.76923 z"
       fill="#3a3a38"
       id="path865"
       style="stroke-width:0.615385" />
    <circle
       cx="23.535969"
       cy="25.964344"
       fill="#fafafa"
       id="circle867"
       style="stroke:#000000;stroke-width:0.861538;stroke-dasharray:none;stroke-opacity:1"
       r="2.7692308" />
    <path
       d="m 23.525996,24.138191 c -1.014096,0 -1.836184,0.822088 -1.836184,1.836185 0,1.014096 0.822088,1.836184 1.836184,1.836184 1.014098,0 1.836185,-0.822088 1.836185,-1.836184 0.02658,-0.178931 0.02658,-0.360807 0,-0.539739 -0.159755,0.357166 -0.528316,0.573839 -0.918092,0.539739 -0.507049,0 -0.918093,-0.411045 -0.918093,-0.918093 -0.0338,-0.390214 0.183664,-0.758906 0.541532,-0.918092 -0.179518,-0.02676 -0.362013,-0.02676 -0.541532,0 z"
       fill="#1e8bcd"
       id="path889"
       style="stroke-width:0.615385" />
  </g>
</svg>
