<?xml version="1.0" encoding="UTF-8" standalone="no"?>
<!-- Created with Inkscape (http://www.inkscape.org/) -->

<svg
   version="1.1"
   id="svg1"
   width="32"
   height="32"
   viewBox="0 0 32 32"
   sodipodi:docname="Info.svg"
   inkscape:version="1.3.2 (091e20e, 2023-11-25, custom)"
   xmlns:inkscape="http://www.inkscape.org/namespaces/inkscape"
   xmlns:sodipodi="http://sodipodi.sourceforge.net/DTD/sodipodi-0.dtd"
   xmlns:xlink="http://www.w3.org/1999/xlink"
   xmlns="http://www.w3.org/2000/svg"
   xmlns:svg="http://www.w3.org/2000/svg">
  <defs
     id="defs1">
    <pattern
       inkscape:collect="always"
       xlink:href="#pattern6-7"
       preserveAspectRatio="none"
       id="pattern5"
       patternTransform="matrix(0.13318173,0,0,0.01364,-26.215758,-25.453321)"
       x="0"
       y="0"
       height="36" />
    <pattern
       patternUnits="userSpaceOnUse"
       width="29"
       height="20"
       patternTransform="translate(190,350)"
       preserveAspectRatio="xMidYMid"
       style="fill:#aa6e46"
       id="pattern6-7"
       inkscape:label="pattern6-7"
       inkscape:collect="always"
       inkscape:isstock="true">
      <path
         style="fill:none;stroke:#000000;stroke-width:10;stroke-linecap:butt;stroke-dasharray:none;paint-order:stroke markers fill;stop-color:#000000"
         d="M 0,5 C 19,5 10,15 29,15"
         id="path4-2"
         sodipodi:nodetypes="cc" />
    </pattern>
    <rect
       x="2536.094"
       y="2444.6284"
       width="74.835564"
       height="266.082"
       id="rect5" />
  </defs>
  <sodipodi:namedview
     id="namedview1"
     pagecolor="#ffffff"
     bordercolor="#000000"
     borderopacity="0.25"
     inkscape:showpageshadow="2"
     inkscape:pageopacity="0.0"
     inkscape:pagecheckerboard="0"
     inkscape:deskcolor="#d1d1d1"
     showgrid="false"
     inkscape:zoom="2.8284273"
     inkscape:cx="-85.559917"
     inkscape:cy="83.615373"
     inkscape:window-width="1920"
     inkscape:window-height="1017"
     inkscape:window-x="-8"
     inkscape:window-y="-8"
     inkscape:window-maximized="1"
     inkscape:current-layer="g1" />
  <g
     inkscape:groupmode="layer"
     inkscape:label="Image"
     id="g1"
     style="display:inline">
    <path
       id="rect4"
       style="fill:#f3edab;fill-opacity:1;stroke:#8e594e;stroke-width:0.313469;stroke-linecap:round"
       inkscape:transform-center-x="21.401682"
       inkscape:transform-center-y="3.1182652"
       d="M 8.1271193,2.2253552 H 26.073091 c 0.575375,0 1.038758,0.3335392 1.038581,0.7478456 l -0.01001,23.5808442 c -1.32e-4,0.3128 -0.453192,0.229901 -1.028567,0.229901 H 8.1271193 c -0.575374,0 -1.0385812,-0.333539 -1.0385812,-0.747846 V 2.9732008 c 0,-0.4143064 0.4632072,-0.7478456 1.0385812,-0.7478456 z"
       sodipodi:nodetypes="sssssssss" />
    <path
       id="rect3"
       style="fill:#8e594e;stroke:#8e594e;stroke-width:0.351248;stroke-linecap:round;stroke-opacity:1"
       inkscape:transform-center-x="-13.533751"
       inkscape:transform-center-y="-6.2283364"
       d="M 6.252035,2.2760534 9.2782088,2.2445666 9.542152,26.783946 c 0,0 -3.726862,-0.187006 -4.0647671,-0.07898 -0.2875675,0.09193 -0.287219,2.880089 -0.2865458,1.722048 l 0.014,-24.0833033 c 6.732e-4,-1.158039 0.04179,-2.0571948 1.047196,-2.0676553 z"
       sodipodi:nodetypes="sccssss" />
    <path
       id="rect1"
       style="fill:url(#pattern5);fill-opacity:1;stroke:#8e594e;stroke-width:0.311286;stroke-linecap:round;stroke-opacity:1"
       d="m 6.2392693,26.813741 20.8724027,-0.0298 c 0.128686,-1.9e-4 -0.404265,0.538671 -0.384249,1.521773 0.01884,0.924936 0.746428,1.678824 0.395784,1.679646 L 6.6182241,30.03348 C 6.2675804,30.034298 5.1822097,29.809325 5.1884734,28.80585 l 0.00473,-0.757682 c 0.00426,-0.682622 0.3558561,-1.233441 1.0460659,-1.234427 z"
       sodipodi:nodetypes="ssssssss" />
    <path
       style="color:#000000;-inkscape-font-specification:Gabriola;display:inline;fill:#8d0b0b;stroke-linecap:round;-inkscape-stroke:none;fill-opacity:1"
       d="m 18.266214,22.935232 c -1.194424,-0.246769 -2.704549,-0.46722 -3.30616,-1.681258 -0.509624,-1.426399 0.687615,-2.630048 1.570737,-3.584078 1.93381,-2.018969 3.960612,-4.183954 4.618929,-6.99111 0.347809,-1.5581073 0.429045,-3.5608242 -1.023485,-4.5969274 -1.242841,-0.84965 -2.853948,-0.5013616 -4.074027,0.2003366 -1.005167,0.5724157 -2.43493,1.4463734 -2.192684,2.797438 0.445888,1.2238238 2.309749,-0.4560175 2.572637,-0.070281 -0.651468,0.7196524 -0.771633,2.4015327 -1.971603,2.2196687 -1.243768,-0.02231 -2.842977,-0.222557 -3.329083,-1.5795041 -0.595333,-1.8241382 0.669689,-3.6570595 2.151083,-4.6233333 2.431633,-1.5747268 5.688824,-2.3247291 8.434899,-1.1369185 1.452705,0.6111778 2.463629,2.0274341 2.622131,3.5882995 0.479025,3.2356504 -1.207513,6.4092414 -3.484654,8.6013664 -1.268107,1.355842 -2.734399,2.552434 -3.78765,4.091823 -0.47279,1.06355 0.988117,1.685254 1.456174,2.128687 -0.08575,0.21193 -0.171496,0.423861 -0.257244,0.635791 z m -1.646517,6.293759 c -1.323484,0.04308 -2.167691,-1.519901 -1.612915,-2.664827 0.464432,-1.288081 2.415668,-1.528592 3.153025,-0.36831 0.763855,1.141254 -0.108356,3.051468 -1.54011,3.033137 z"
       id="path9" />
    <path
       style="color:#000000;-inkscape-font-specification:Gabriola;display:inline;fill:#f80700;stroke-width:0;stroke-linecap:round;stroke:#91594e;stroke-opacity:1;stroke-dasharray:none;fill-opacity:1"
       d="m 16.412294,24.771201 c -0.870109,0.102889 -1.688694,0.633011 -2.019061,1.523904 -0.748848,1.585955 0.396132,3.673903 2.227071,3.622099 0.999026,0.0084 1.793794,-0.651261 2.193157,-1.469639 0.399661,-0.81899 0.446241,-1.842335 -0.08592,-2.643095 -0.517535,-0.811693 -1.439825,-1.136793 -2.31525,-1.033269 z m 0.08818,0.791345 c 0.600736,-0.07255 1.232726,0.135384 1.569125,0.664729 l 0.0023,0.0023 0.0023,0.0045 c 0.347679,0.519459 0.333614,1.260322 0.03617,1.869835 -0.297437,0.609514 -0.834053,1.04164 -1.487728,1.033271 l -0.009,-0.0023 -0.009,0.0023 c -1.219023,0.03968 -2.01688,-1.463882 -1.503556,-2.523261 l 0.009,-0.01809 0.0068,-0.02035 c 0.212132,-0.588337 0.782988,-0.940373 1.383723,-1.012921 z"
       id="path11" />
    <path
       d="m 18.763672,2.9667969 c -2.005103,0.00627 -4.019407,0.710311 -5.664063,1.7753906 l -0.002,0.00195 c -0.785744,0.5125206 -1.509454,1.2471928 -1.96875,2.1152344 -0.459293,0.8680416 -0.648304,1.8855158 -0.318359,2.8964844 l 0.002,0.00391 v 0.00391 c 0.280972,0.7843201 0.906749,1.2495721 1.583984,1.4941411 0.665017,0.240155 1.391887,0.291926 2.021485,0.304687 0.37364,0.05421 0.717684,-0.04319 0.96875,-0.232422 0.253093,-0.190757 0.420825,-0.448641 0.5625,-0.71289 0.283347,-0.528501 0.489648,-1.1105195 0.734375,-1.3808599 l 0.177734,-0.1972656 -0.150391,-0.21875 c -0.117372,-0.172227 -0.337034,-0.2169187 -0.474609,-0.2050781 -0.137575,0.011841 -0.252628,0.052536 -0.375,0.099609 -0.244743,0.094147 -0.51282,0.2280388 -0.771484,0.3300781 -0.258667,0.1020393 -0.506004,0.1625627 -0.648438,0.1503906 -0.127786,-0.01092 -0.171947,-0.053207 -0.236328,-0.2070312 -0.08099,-0.530591 0.124493,-0.956994 0.523438,-1.3613282 0.408761,-0.4142861 0.992047,-0.7670775 1.490234,-1.0507812 h 0.002 c 1.149319,-0.661002 2.61637,-0.9604939 3.710938,-0.2148438 0.637446,0.4563992 0.938174,1.1097375 1.046875,1.8710938 0.108732,0.7615775 0.0097,1.6155961 -0.158204,2.3691411 -0.631916,2.694584 -2.601286,4.818945 -4.533203,6.835937 l -0.002,0.002 -0.002,0.002 c -0.437969,0.473137 -0.9781,1.026428 -1.353515,1.675781 -0.375418,0.649352 -0.580284,1.431382 -0.28711,2.251954 l 0.0059,0.01758 0.0078,0.01758 c 0.347165,0.700569 0.964054,1.113564 1.611328,1.36914 0.647274,0.255576 1.340589,0.372433 1.929688,0.494141 l 0.277343,0.05664 0.105469,-0.261719 c 0.08575,-0.211932 0.170112,-0.422839 0.255859,-0.634766 l 0.08789,-0.214843 -0.167969,-0.158204 c -0.304252,-0.288247 -0.762255,-0.530527 -1.082031,-0.832031 -0.159888,-0.150751 -0.27481,-0.305454 -0.326172,-0.447265 -0.04878,-0.134684 -0.04642,-0.263717 0.02734,-0.44336 1.012185,-1.465168 2.438877,-2.645892 3.714844,-4.007812 l 0.01172,-0.01367 C 23.42785,14.065352 25.169569,10.809561 24.673828,7.4375 24.500923,5.7571856 23.420525,4.2419938 21.851562,3.5800781 21.130794,3.2683104 20.381029,3.0839915 19.621094,3.0078125 19.336118,2.9792454 19.050115,2.9659016 18.763672,2.9667969 Z m -0.0098,0.6796875 c 0.264684,-0.00146 0.528851,0.011588 0.791016,0.037109 0.699103,0.068057 1.386799,0.2354423 2.039062,0.5175781 h 0.002 c 1.332289,0.5605166 2.271989,1.8729932 2.417969,3.3105468 v 0.00781 l 0.002,0.00781 c 0.457497,3.0902273 -1.165,6.1717033 -3.384765,8.3085943 l -0.0078,0.0059 -0.0059,0.0078 c -1.247077,1.333357 -2.72864,2.53817 -3.81836,4.13086 l -0.01758,0.02539 -0.01367,0.02734 c -0.149416,0.33612 -0.151091,0.684922 -0.04687,0.972656 0.104212,0.287737 0.295255,0.515938 0.5,0.708985 0.342909,0.323312 0.683423,0.529513 0.904297,0.695312 -0.0172,0.04252 -0.03553,0.08443 -0.05273,0.126953 -0.525335,-0.106312 -1.073178,-0.205539 -1.546875,-0.392578 -0.548748,-0.216673 -0.978314,-0.523283 -1.234375,-1.023437 -0.20592,-0.597192 -0.07855,-1.124748 0.234375,-1.666016 0.315708,-0.546073 0.815531,-1.070964 1.259766,-1.550781 l 0.0039,-0.0039 c 1.934638,-2.019876 4.014944,-4.226695 4.699219,-7.144532 l 0.002,-0.002 C 21.659748,9.9502767 21.775087,9.0237971 21.648437,8.1367188 21.521788,7.2496402 21.134799,6.3862285 20.322266,5.8066406 l -0.002,-0.00195 -0.0039,-0.00195 C 18.925692,4.8519584 17.172482,5.2485126 15.882813,5.9902344 15.37618,6.2787755 14.744218,6.6494666 14.248047,7.1523437 13.7512,7.6559036 13.383592,8.3388902 13.527344,9.140625 l 0.0039,0.027344 0.0098,0.027344 c 0.145923,0.4005177 0.503089,0.644716 0.84375,0.6738281 0.340659,0.029112 0.657229,-0.078587 0.953125,-0.1953125 0.180286,-0.071121 0.315547,-0.1317989 0.466797,-0.1992187 -0.141478,0.2899315 -0.320826,0.5810936 -0.451172,0.8242186 -0.119796,0.223443 -0.245762,0.396252 -0.373047,0.492188 -0.127286,0.09593 -0.245922,0.137287 -0.46875,0.103515 l -0.02344,-0.002 h -0.02148 c -0.606376,-0.01083 -1.28501,-0.06916 -1.839844,-0.269531 -0.55292,-0.199676 -0.967947,-0.513162 -1.173828,-1.0820314 -0.263651,-0.811855 -0.120659,-1.6204122 0.273438,-2.3652344 0.394729,-0.7460171 1.04459,-1.411484 1.740234,-1.8652343 1.546853,-1.0017431 3.434326,-1.6538317 5.287109,-1.6640625 z"
       style="-inkscape-font-specification:Gabriola;display:inline;fill:#f60000;stroke:#d81271;stroke-width:0;stroke-linecap:round"
       id="path2" />
  </g>
</svg>
