<?xml version="1.0" encoding="UTF-8" standalone="no"?>
<!-- Created with Inkscape (http://www.inkscape.org/) -->

<svg
   version="1.1"
   id="svg1"
   width="32"
   height="32"
   viewBox="0 0 32 32"
   sodipodi:docname="Plantilla.svg"
   inkscape:version="1.3.2 (091e20e, 2023-11-25, custom)"
   xmlns:inkscape="http://www.inkscape.org/namespaces/inkscape"
   xmlns:sodipodi="http://sodipodi.sourceforge.net/DTD/sodipodi-0.dtd"
   xmlns="http://www.w3.org/2000/svg"
   xmlns:svg="http://www.w3.org/2000/svg">
  <defs
     id="defs1" />
  <sodipodi:namedview
     id="namedview1"
     pagecolor="#ffffff"
     bordercolor="#000000"
     borderopacity="0.25"
     inkscape:showpageshadow="2"
     inkscape:pageopacity="0.0"
     inkscape:pagecheckerboard="0"
     inkscape:deskcolor="#d1d1d1"
     inkscape:zoom="8.4595216"
     inkscape:cx="10.698005"
     inkscape:cy="34.221794"
     inkscape:window-width="1920"
     inkscape:window-height="1017"
     inkscape:window-x="-8"
     inkscape:window-y="-8"
     inkscape:window-maximized="1"
     inkscape:current-layer="g1" />
  <g
     inkscape:groupmode="layer"
     inkscape:label="Image"
     id="g1">
    <g
       id="g9">
      <rect
         style="fill:#d9f1dd;stroke:#000000;stroke-width:0.7;stroke-dasharray:none;stroke-opacity:1"
         id="rect1"
         width="20.332119"
         height="24.646784"
         x="9.9887466"
         y="5.7922897"
         rx="0.89999998"
         ry="0.89999998" />
      <rect
         style="fill:#eefefb;stroke:#000000;stroke-width:0.7;stroke-dasharray:none;stroke-opacity:1;fill-opacity:1"
         id="rect2"
         width="20.332119"
         height="24.646784"
         x="6.7970767"
         y="1.9504648"
         rx="0.89999998"
         ry="0.89999998" />
      <path
         style="fill:#fafefb;fill-opacity:1;stroke:#000000;stroke-width:1.02;stroke-dasharray:none;stroke-opacity:1"
         d="M 9.9887466,6.042011 H 22.745747 22.620674 v 0"
         id="path2" />
      <path
         style="fill:#fafefb;fill-opacity:1;stroke:#000000;stroke-width:1.02;stroke-dasharray:none;stroke-opacity:1"
         d="M 8.3563155,8.5195699 H 21.113315 20.988242 v 0"
         id="path2-4" />
      <path
         style="fill:#fafefb;fill-opacity:1;stroke:#000000;stroke-width:1.1;stroke-dasharray:none;stroke-opacity:1"
         d="m 9.9887466,11.46525 h 7.8570004 -0.07705 v 0"
         id="path2-4-5" />
      <rect
         style="fill:#fae9fb;fill-opacity:1;stroke:#000000;stroke-width:1.1;stroke-dasharray:none;stroke-opacity:1"
         id="rect4"
         width="6.7970748"
         height="7.5063348"
         x="17.081345"
         y="15.01267"
         rx="0.89999998"
         ry="0.89999998" />
      <path
         style="fill:#fafefb;fill-opacity:1;stroke:#780000;stroke-width:0.5;stroke-dasharray:none;stroke-opacity:1"
         d="m 18.795389,16.726714 c 2.186885,0.0591 2.186885,0.0591 2.186885,0.0591 v 0"
         id="path4" />
      <path
         style="fill:#fafefb;fill-opacity:1;stroke:#780000;stroke-width:0.5;stroke-dasharray:none;stroke-opacity:1"
         d="m 19.268229,18.263444 c 3.07346,0 3.07346,0 3.07346,0"
         id="path5" />
      <path
         style="fill:#fafefb;fill-opacity:1;stroke:#780000;stroke-width:0.5;stroke-dasharray:none;stroke-opacity:1"
         d="m 19.090914,19.800174 2.068675,0.05911 v 0 0"
         id="path6" />
    </g>
    <path
       id="path9"
       style="fill:#efe3a5;fill-opacity:1;stroke:#780000;stroke-width:0.217"
       inkscape:transform-center-x="1.646089"
       inkscape:transform-center-y="0.088825081"
       d="m 16.624813,25.369668 c -0.46331,-0.367852 -3.154925,-1.264244 -3.955649,-1.849221 l -0.936448,-1.632544 1.220127,-1.251997 1.645283,0.977632 c 0,0 2.489998,4.12398 2.026687,3.75613 z"
       sodipodi:nodetypes="zccccz" />
    <g
       id="g10"
       transform="translate(-7.1321459e-8,1.9474315e-5)">
      <path
         style="fill:#100769;fill-opacity:1;stroke:#100769;stroke-width:0.210866;stroke-dasharray:none;stroke-opacity:1"
         id="path8"
         sodipodi:type="arc"
         sodipodi:cx="-5.3814406"
         sodipodi:cy="12.364388"
         sodipodi:rx="1.5759219"
         sodipodi:ry="2.6588519"
         sodipodi:start="0"
         sodipodi:end="6.2803186"
         sodipodi:arc-type="slice"
         d="m -3.8055187,12.364388 a 1.5759219,2.6588519 0 0 1 -1.5747925,2.658852 1.5759219,2.6588519 0 0 1 -1.5770497,-2.65504 1.5759219,2.6588519 0 0 1 1.572532,-2.6626573 1.5759219,2.6588519 0 0 1 1.5793037,2.6512233 l -1.5759154,0.0076 z"
         inkscape:transform-center-x="-0.018731318"
         inkscape:transform-center-y="-0.13092566"
         transform="rotate(-41.17757)" />
      <rect
         style="fill:#2b47fb;fill-opacity:1;stroke:#100769;stroke-width:0.532836;stroke-dasharray:none;stroke-opacity:1"
         id="rect6"
         width="2.8752952"
         height="13.052912"
         x="-7.4213562"
         y="10.633772"
         transform="matrix(0.69793271,-0.71616334,0.69793271,0.71616334,0,0)" />
      <path
         style="fill:none;fill-opacity:1;stroke:#100769;stroke-width:0.5;stroke-dasharray:none;stroke-opacity:1"
         d="m 3.2454314,11.90083 c 9.1100536,9.348016 9.1100536,9.348016 9.1100536,9.348016 v 0"
         id="path7" />
      <path
         style="fill:#100769;fill-opacity:1;stroke:#100769;stroke-width:0.217;stroke-dasharray:none;stroke-opacity:1"
         d="M 5.8816383,18.781816 4.021143,17.422401 3.069607,14.171626 2.24205,12.930421"
         id="path12" />
    </g>
    <path
       style="fill:#efe3a5;fill-opacity:1;stroke:#780000;stroke-width:0.217;stroke-dasharray:none;stroke-opacity:1"
       d="m 13.049603,21.993254 c 2.526739,2.12778 3.57521,3.376414 3.57521,3.376414 v 0"
       id="path10"
       sodipodi:nodetypes="ccc" />
    <path
       style="fill:#780000;fill-opacity:1;stroke:#780000;stroke-width:0.217;stroke-dasharray:none;stroke-opacity:1"
       id="path11"
       sodipodi:type="arc"
       sodipodi:cx="13.084198"
       sodipodi:cy="21.940256"
       sodipodi:rx="0.29537362"
       sodipodi:ry="0.33299312"
       sodipodi:start="0"
       sodipodi:end="6.2803186"
       sodipodi:arc-type="slice"
       d="m 13.379572,21.940256 a 0.29537362,0.33299312 0 0 1 -0.295162,0.332993 0.29537362,0.33299312 0 0 1 -0.295585,-0.332516 0.29537362,0.33299312 0 0 1 0.294738,-0.333469 0.29537362,0.33299312 0 0 1 0.296007,0.332038 l -0.295372,9.54e-4 z" />
  </g>
</svg>
