<?xml version="1.0" encoding="UTF-8" standalone="no"?>
<svg
   viewBox="0 0 32 32"
   version="1.1"
   id="svg4"
   sodipodi:docname="Renombrar.svg"
   inkscape:version="1.3.2 (091e20e, 2023-11-25, custom)"
   xmlns:inkscape="http://www.inkscape.org/namespaces/inkscape"
   xmlns:sodipodi="http://sodipodi.sourceforge.net/DTD/sodipodi-0.dtd"
   xmlns="http://www.w3.org/2000/svg"
   xmlns:svg="http://www.w3.org/2000/svg">
  <defs
     id="defs4" />
  <sodipodi:namedview
     id="namedview4"
     pagecolor="#ffffff"
     bordercolor="#000000"
     borderopacity="0.25"
     inkscape:showpageshadow="2"
     inkscape:pageopacity="0.0"
     inkscape:pagecheckerboard="0"
     inkscape:deskcolor="#d1d1d1"
     inkscape:zoom="25.65625"
     inkscape:cx="16"
     inkscape:cy="16"
     inkscape:window-width="1920"
     inkscape:window-height="1017"
     inkscape:window-x="-8"
     inkscape:window-y="-8"
     inkscape:window-maximized="1"
     inkscape:current-layer="svg4" />
  <path
     d="m15 3a12 12 0 0 0 -12 12 12 12 0 0 0 12 12 12 12 0 0 0 7-2.271484v-.728516-12-2c-1.047117-.0001047-1.999895-.9528834-2-2v-1c.000094-.9380661.765611-1.7953253 1.677734-1.9648438a12 12 0 0 0 -6.677734-2.0351562z"
     fill="#ed8733"
     id="path1" />
  <path
     d="m15 4a11 11 0 0 0 -11 11 11 11 0 0 0 11 11 11 11 0 0 0 7-2.525391v-11.474609-2c-1.047117-.0001047-1.999895-.9528834-2-2v-1c.000054-.5407809.256472-1.053556.646484-1.4257812a11 11 0 0 0 -5.646484-1.5742188z"
     fill="#f8db8f"
     id="path2" />
  <path
     d="m22 6.0000005a1.0001 1.0001 0 0 0 -1 1v1a1.0001 1.0001 0 0 0 1 1h1v2.9999995 12 3h-1a1.0001 1.0001 0 0 0 -1 1v1a1.0001 1.0001 0 0 0 1 1h2a1.0001 1.0001 0 0 0 .5-.134766 1.0001 1.0001 0 0 0 .5.134766h2a1.0001 1.0001 0 0 0 1-1v-1a1.0001 1.0001 0 0 0 -1-1h-1v-3-12-2.9999995h1a1.0001 1.0001 0 0 0 1-1v-1a1.0001 1.0001 0 0 0 -1-1h-2a1.0001 1.0001 0 0 0 -.5.1347656 1.0001 1.0001 0 0 0 -.5-.1347656z"
     fill="#3a3a38"
     fill-opacity=".992366"
     id="path3" />
  <path
     d="m22 7.0000005v1h2v-1zm2 1v19.9999995h1v-19.9999995zm1 0h2v-1h-2zm0 19.9999995v1h2v-1zm-1 0h-2v1h2z"
     fill="#fafafa"
     stroke-width="2"
     id="path4" />
  <text
     xml:space="preserve"
     style="fill:#000000"
     x="1.0133985"
     y="26.738125"
     id="text4"><tspan
       sodipodi:role="line"
       id="tspan4"
       x="1.0133985"
       y="26.738125">abc</tspan></text>
</svg>
