<?xml version="1.0" encoding="UTF-8" standalone="no"?>
<svg
   viewBox="0 0 32 32"
   version="1.1"
   id="svg14"
   sodipodi:docname="Tablas.svg"
   inkscape:version="1.2.1 (9c6d41e410, 2022-07-14)"
   xmlns:inkscape="http://www.inkscape.org/namespaces/inkscape"
   xmlns:sodipodi="http://sodipodi.sourceforge.net/DTD/sodipodi-0.dtd"
   xmlns="http://www.w3.org/2000/svg"
   xmlns:svg="http://www.w3.org/2000/svg">
  <defs
     id="defs18" />
  <sodipodi:namedview
     id="namedview16"
     pagecolor="#ffffff"
     bordercolor="#666666"
     borderopacity="1.0"
     inkscape:showpageshadow="2"
     inkscape:pageopacity="0"
     inkscape:pagecheckerboard="0"
     inkscape:deskcolor="#d1d1d1"
     showgrid="false"
     inkscape:zoom="18.495262"
     inkscape:cx="26.087763"
     inkscape:cy="17.085457"
     inkscape:window-width="1920"
     inkscape:window-height="1017"
     inkscape:window-x="-8"
     inkscape:window-y="-8"
     inkscape:window-maximized="1"
     inkscape:current-layer="svg14" />
  <g
     id="g561"
     transform="matrix(0.8846081,0,0,0.89257692,3.5886468,3.3405385)">
    <path
       d="M 7,7 H 31 V 31 H 7 Z"
       fill="#fafafa"
       id="path2" />
    <path
       d="M 7,6 C 6.446,6 6,6.446 6,7 v 24 c 0,0.554 0.446,1 1,1 h 24 c 0.554,0 1,-0.446 1,-1 V 7 C 32,6.446 31.554,6 31,6 Z m 0,1 h 24 v 9 1 4 1 4 1 4 H 25 24 19 18 13 12 7 v -4 -1 -4 -1 -4 -1 z"
       fill="#3a3a38"
       id="path4" />
    <path
       d="m 6,6 h 26 v 6 H 6 Z"
       fill="#3a3a38"
       id="path6" />
    <g
       fill="#797774"
       id="g12"
       transform="translate(3,3)">
      <path
         d="m 9,9 v 4 H 4 v 1 h 5 v 4 H 4 v 1 h 5 v 4 H 4 v 1 h 5 v 4 h 1 v -4 h 5 v 4 h 1 v -4 h 5 v 4 h 1 v -4 h 6 v -1 h -6 v -4 h 6 v -1 h -6 v -4 h 6 V 13 H 22 V 9 h -1 v 4 H 16 V 9 h -1 v 4 H 10 V 9 Z m 1,5 h 5 v 4 h -5 z m 6,0 h 5 v 4 h -5 z m -6,5 h 5 v 4 h -5 z m 6,0 h 5 v 4 h -5 z"
         id="path8" />
      <path
         d="M 4,4 H 28 V 8 H 4 Z"
         stroke-width="0.784465"
         id="path10" />
    </g>
  </g>
  <g
     id="g490"
     transform="matrix(1.4977883,0,0,1.4977883,-24.917466,-32.800011)">
    <path
       d="m 17.208294,25.916159 c 4.167224,-4.666523 8.387321,-4.888336 12.471047,-0.02218 -4.216545,4.728696 -8.360413,4.826277 -12.471047,0.02218 z"
       fill="none"
       stroke="#3a3a38"
       id="path1164"
       style="fill:#ffffff;fill-opacity:1;stroke:#000000;stroke-width:0.861538;stroke-dasharray:none;stroke-opacity:1"
       sodipodi:nodetypes="ccc" />
    <path
       d="m 23.535966,22.579724 c -1.869272,0 -3.384616,1.515344 -3.384616,3.384615 0,1.869272 1.515344,3.384616 3.384616,3.384616 1.869271,0 3.384615,-1.515344 3.384615,-3.384616 0,-1.869271 -1.515344,-3.384615 -3.384615,-3.384615 z m 0,0.615385 a 2.7692308,2.7692308 0 0 1 2.76923,2.76923 2.7692308,2.7692308 0 0 1 -2.76923,2.769231 2.7692308,2.7692308 0 0 1 -2.769231,-2.769231 2.7692308,2.7692308 0 0 1 2.769231,-2.76923 z"
       fill="#3a3a38"
       id="path865"
       style="stroke-width:0.615385" />
    <circle
       cx="23.535969"
       cy="25.964344"
       fill="#fafafa"
       id="circle867"
       style="stroke:#000000;stroke-width:0.861538;stroke-dasharray:none;stroke-opacity:1"
       r="2.7692308" />
    <path
       d="m 23.525996,24.138191 c -1.014096,0 -1.836184,0.822088 -1.836184,1.836185 0,1.014096 0.822088,1.836184 1.836184,1.836184 1.014098,0 1.836185,-0.822088 1.836185,-1.836184 0.02658,-0.178931 0.02658,-0.360807 0,-0.539739 -0.159755,0.357166 -0.528316,0.573839 -0.918092,0.539739 -0.507049,0 -0.918093,-0.411045 -0.918093,-0.918093 -0.0338,-0.390214 0.183664,-0.758906 0.541532,-0.918092 -0.179518,-0.02676 -0.362013,-0.02676 -0.541532,0 z"
       fill="#1e8bcd"
       id="path889"
       style="stroke-width:0.615385" />
  </g>
</svg>
